<svg xmlns="http://www.w3.org/2000/svg" width="40" height="40" viewBox="0 0 60 60">
  <defs/>
  <path fill="#de8787" d="M.337 30c0-16.569 13.23-30 29.55-30C46.209 0 59.44 13.431 59.44 30c0 16.569-13.23 30-29.551 30C13.568 60 .337 46.569.337 30zm0 0"/>
  <path fill="#fff" d="M26.69 13.19h18.376c5.984 0 11.397 4.416 12.394 10.4.998 6.268-1.994 11.823-7.977 13.96-1.71.57-3.562.713-5.414.998-.712.142-1.14.284-1.14 1.14 0 .854-.284 1.851-.57 2.706-.996 2.85-3.418 4.416-6.41 4.416H11.731c-4.131 0-6.838-2.707-6.838-6.695V16.324c0-2.28.57-2.992 2.85-2.992 6.41-.142 12.678-.142 18.946-.142zm7.692 13.533c0-3.134-1.994-5.128-4.986-5.27-1.852 0-3.42.712-4.701 1.851-.57.57-.997.428-1.71 0-.997-.712-2.137-1.282-3.276-1.71-2.565-.711-5.984.57-6.41 3.847-.286 2.422.569 4.559 2.278 6.126 2.422 2.422 5.129 4.844 7.693 7.265.428.428.855.428 1.282 0 2.422-2.421 4.986-4.843 7.408-7.265 1.567-1.282 2.564-2.85 2.422-4.844zm8.548-.712v3.847c0 2.279-.428 2.136 2.136 2.136 2.28 0 4.132-.997 5.129-3.134.997-2.279 1.14-4.558-.427-6.695-1.425-1.995-3.42-2.28-5.699-2.137-.855 0-1.14.285-1.14 1.14v4.843z"/>
  <path fill-opacity=".08" d="M59.493 30.465C59.158 47.03 45.659 60.19 29.342 59.86a29.101 29.101 0 01-16.262-5.347L47.927 6.045c7.2 5.608 11.766 14.5 11.566 24.42zm0 0"/>
</svg>
